<?xml version="1.0" encoding="UTF-8"?>
<svg version="1.1" viewBox="0 0 1920 811" width="1920" height="811" xmlns="http://www.w3.org/2000/svg">
<path transform="translate(825)" d="m0 0h35l26 3 24 5 20 6 27 11 21 11 21 14 13 10 14 12 16 16 9 11 11 14 6-2 29-14 29-11 26-8 30-7 32-5 23-2h52l31 3 29 5 32 8 33 11 26 11 24 12 22 13 18 12 19 14 13 11 10 9 8 7 20 20 7 8 11 13 12 16 18 27 12 21 8 15 13 30 10 28 1 6 11-1h37l23 3 21 5 23 8 25 12 19 12 16 13 10 9 14 14 11 14 12 18 10 18 8 19 6 18 5 22 3 26v26l-3 25-5 23-8 23-12 25-9 15-12 16-12 14-13 13-11 9-15 11-15 9-16 8-14 6-18 6-22 5-23 3h-1504l-23-3-22-5-21-7-22-10-17-10-14-10-11-9-12-11-9-9-9-11-11-15-10-17-11-23-9-27-5-25-2-19v-26l3-26 6-25 6-18 11-24 11-18 10-14 12-14 17-17 14-11 14-10 18-10 17-8 30-10 20-4 17-2h37l3-9 9-19 11-19 10-15 9-12 8-10 9-10 7-8 14-14 11-9 12-10 17-12 18-11 23-12 23-10 24-8 24-6 23-4 18-2 32-1 31 2 15 1 12-25 10-17 12-17 9-11 11-12 17-17 14-11 15-11 15-9 23-12 23-9 24-7 26-5zm11 32-25 2-22 4-21 6-19 7-17 8-17 10-14 10-10 8-10 9-8 7-7 8-12 14-14 21-12 22-13 31v3l-42-6-11-1h-39l-27 3-24 5-24 7-21 8-23 11-17 10-16 11-13 10-15 13-18 18-9 11-11 14-10 15-10 17-13 27-9 22-27-2h-23l-19 2-22 5-21 7-17 8-18 11-13 10-12 11-13 13-10 13-9 14-11 21-8 22-5 22-2 14v37l3 20 5 20 6 16 9 19 10 16 11 14 11 12 9 9 14 11 15 10 21 11 25 9 24 5 22 2h1484l22-2 24-5 20-7 23-11 18-12 10-8 12-11 9-9 11-14 10-15 10-19 8-21 6-25 2-15v-37l-4-24-6-21-8-19-9-17-11-16-11-13-17-17-17-13-15-9-16-8-15-6-17-5-22-4-12-1h-23l-34 4-5 1-3-9-17-49-11-25-13-25-11-18-11-16-13-17-11-13-12-13-19-19-11-9-13-11-18-13-19-12-18-10-16-8-20-9-25-9-23-7-28-6-27-4-26-2h-34l-26 2-32 5-30 7-36 12-23 10-16 8-20 11-8 5h-3l-11-16-10-14-9-11-11-12-11-11-11-9-15-11-13-8-23-12-24-9-23-6-26-4-16-1z" fill="#76C2E2"/>
</svg>
